<svg version="1.1" id="Layer_1" xmlns="http://www.w3.org/2000/svg" xmlns:xlink="http://www.w3.org/1999/xlink" x="0px" y="0px"
	 width="100%" viewBox="0 0 544 459" enable-background="new 0 0 544 459" xml:space="preserve">
<path fill="#000000" opacity="1.000000" stroke="none" 
	d="
M376.000000,460.000000 
	C250.666702,460.000000 125.833389,460.000000 1.000067,460.000000 
	C1.000045,307.000061 1.000045,154.000137 1.000022,1.000149 
	C182.333237,1.000099 363.666473,1.000099 544.999756,1.000050 
	C544.999878,153.999863 544.999878,306.999725 544.999939,459.999786 
	C488.833344,460.000000 432.666656,460.000000 376.000000,460.000000 
M383.004486,191.992950 
	C383.004486,191.992950 383.021545,191.970367 382.629211,191.406570 
	C379.720337,186.715469 376.995056,181.895065 373.822021,177.390030 
	C372.326416,175.266647 369.971130,173.748779 367.747620,171.360336 
	C367.129608,170.215988 366.511566,169.071625 365.671844,167.266541 
	C363.796448,164.476578 361.921051,161.686600 359.878662,158.459930 
	C359.694855,158.185471 359.440948,158.016068 359.003662,157.284302 
	C358.346100,156.830368 357.688507,156.376419 356.950043,155.230652 
	C349.474030,146.706680 341.556976,138.521317 334.667419,129.547134 
	C329.545044,122.874840 322.879639,118.548584 316.011292,113.352364 
	C315.352509,112.874161 314.693756,112.395950 314.010010,111.981674 
	C314.010010,111.981674 314.074982,111.959549 313.784973,111.340034 
	C308.876709,107.856720 303.968414,104.373405 298.995789,100.179016 
	C298.077515,98.746986 297.159271,97.314949 295.918640,95.266907 
	C292.964294,92.826141 290.009979,90.385384 286.959229,87.239487 
	C281.083893,79.922173 272.380371,77.378052 264.187836,74.209755 
	C260.373322,72.734581 258.139801,75.894852 259.206512,80.105423 
	C260.028137,83.348557 260.526611,86.673561 260.714569,90.624626 
	C259.589935,90.651443 258.452118,90.802078 257.342987,90.683685 
	C252.473541,90.163925 247.595306,89.008957 242.753143,89.157333 
	C238.120499,89.299286 233.528473,90.766792 228.918579,91.651680 
	C228.821350,92.333038 228.724106,93.014389 228.626862,93.695747 
	C233.086334,97.474358 237.545807,101.252968 242.162262,105.492111 
	C242.352173,105.783539 242.619553,105.952065 243.066513,106.666969 
	C244.362198,108.127403 245.657883,109.587830 247.162567,111.582214 
	C247.738037,112.072762 248.313507,112.563309 248.990646,113.751732 
	C249.385498,114.848831 249.780365,115.945930 249.790070,117.644997 
	C247.635376,119.417778 245.485794,121.196846 243.324661,122.961754 
	C240.621246,125.169510 236.907349,126.759529 238.046097,131.970673 
	C237.767593,133.666595 237.489090,135.362503 237.134338,137.772598 
	C237.178818,138.487839 237.223297,139.203079 237.147568,140.600815 
	C237.171127,141.061157 237.194672,141.521484 237.065430,142.758316 
	C236.756912,144.533386 236.448380,146.308456 235.991379,148.771393 
	C230.798492,152.261978 225.507812,155.618439 220.455521,159.301895 
	C218.063095,161.046127 216.126587,163.415695 213.983521,165.501953 
	C216.327560,166.602524 218.671600,167.703094 221.448654,168.951965 
	C221.448654,168.951965 221.902847,169.008667 222.289383,169.553284 
	C223.159134,169.630676 224.028900,169.708084 225.563492,170.133301 
	C231.949478,173.524063 238.359497,176.176346 245.492340,170.735596 
	C245.776749,170.574127 245.961105,170.335388 245.996414,170.004547 
	C245.996414,170.004547 246.027588,170.045273 246.734375,169.947845 
	C250.496170,167.983185 254.257950,166.018509 258.624207,164.257507 
	C259.742493,164.862915 260.860748,165.468307 262.365051,166.586365 
	C263.892792,167.776291 265.420502,168.966232 267.156006,170.543808 
	C267.339844,170.785706 267.576569,170.952438 268.215607,171.637878 
	C270.789948,176.764633 273.364288,181.891388 276.005646,187.946457 
	C275.389893,195.646744 274.774109,203.347046 274.046844,211.767197 
	C274.001373,212.493607 273.955902,213.220001 273.349945,214.267120 
	C272.646851,215.528091 271.943756,216.789062 270.873047,218.686249 
	C269.542206,220.869034 268.211365,223.051819 266.129303,225.043823 
	C260.750214,222.436630 255.371094,219.829437 249.361267,216.965927 
	C248.918442,217.043243 248.475601,217.120560 247.288727,217.063492 
	C241.209473,213.900681 235.037903,210.901672 229.071625,207.538422 
	C218.958130,201.837372 209.355164,195.068787 198.838562,190.286041 
	C185.952927,184.425949 172.348190,180.147064 158.309464,175.006622 
	C157.209854,175.353058 156.110229,175.699509 154.338852,176.121658 
	C153.894867,176.062988 153.450867,176.004318 152.812851,175.310333 
	C152.183090,175.280563 151.553314,175.250793 150.056305,175.136551 
	C147.733017,175.173843 145.409729,175.211121 142.186676,175.008881 
	C134.782562,174.731918 127.610619,175.047211 122.001907,182.813248 
	C129.150238,182.813248 135.099838,182.813248 141.498215,182.926971 
	C141.498215,182.926971 141.945068,183.048004 141.519104,183.794220 
	C135.097473,184.207413 128.576263,184.046906 122.272835,185.141068 
	C103.135620,188.462936 88.434433,198.938217 77.886551,214.985077 
	C75.881912,218.034805 73.087944,222.215622 76.248306,227.002731 
	C79.513145,225.321732 82.638634,223.712479 86.565315,221.969452 
	C99.350227,217.251160 112.371735,216.766815 125.575920,219.842758 
	C131.389374,221.197006 137.182831,222.637085 143.343231,224.643387 
	C154.896133,229.483994 164.778000,236.853149 174.075912,245.073929 
	C176.154602,246.911819 177.968048,249.049698 180.136215,251.697006 
	C185.991776,260.511414 191.947861,269.261383 197.658585,278.168671 
	C200.330231,282.335754 202.527863,286.806702 205.011078,291.841675 
	C209.142975,298.288971 213.506836,304.559021 219.010086,310.740967 
	C221.977295,313.507477 224.944504,316.273956 228.011124,319.737030 
	C230.238647,321.939117 232.466171,324.141205 234.300293,326.700775 
	C234.176834,326.827637 234.053391,326.954529 233.164459,327.024384 
	C230.778793,326.360718 228.393112,325.697052 225.620163,324.432983 
	C221.283524,322.478149 216.946884,320.523315 212.610245,318.568512 
	C212.212845,319.236359 211.815430,319.904175 211.418030,320.572021 
	C217.233902,327.870239 223.819687,334.360352 232.262192,339.634247 
	C233.830307,340.786896 235.398422,341.939575 237.282639,343.699585 
	C238.854630,344.467651 240.426636,345.235718 242.000000,346.000000 
	C242.000000,346.000000 241.996719,346.001862 242.085403,346.728577 
	C245.697784,348.833069 249.310165,350.937561 253.246536,353.641205 
	C254.836823,354.415771 256.427094,355.190338 258.404785,356.540009 
	C262.260101,358.389465 266.115448,360.238892 270.382416,362.702240 
	C275.577576,364.163361 280.772736,365.624481 286.269714,367.610474 
	C286.849365,367.683960 287.429047,367.757477 288.648102,367.956604 
	C289.076050,368.025818 289.504028,368.095001 290.411163,368.810120 
	C295.261902,369.237549 300.112640,369.664978 305.489014,370.731445 
	C308.887726,370.292511 312.286407,369.853577 315.932373,369.739502 
	C315.932373,369.739502 316.340363,369.725250 317.042236,369.852295 
	C319.699890,369.581116 322.357513,369.309937 325.839050,369.015381 
	C328.222168,368.605865 330.605286,368.196350 333.693481,367.596252 
	C336.147858,366.778656 338.602234,365.961060 341.785248,365.036835 
	C344.183563,363.969299 346.581879,362.901764 349.696503,361.892639 
	C361.772400,355.930634 373.009735,348.784302 382.498077,339.077209 
	C384.057709,337.481598 386.131226,336.388336 387.986206,335.819092 
	C386.542328,339.412598 385.006287,342.973785 383.727203,346.625031 
	C383.449402,347.418030 384.092834,348.533783 384.311981,349.500916 
	C385.163116,349.201874 386.322693,349.159241 386.817535,348.563995 
	C391.620087,342.786957 396.311218,336.917297 401.614685,330.718170 
	C405.398102,322.850403 409.980927,315.256256 412.788116,307.054382 
	C417.687622,292.739441 418.285034,277.974304 415.028168,263.014496 
	C411.990662,249.062439 408.228058,235.443863 400.917786,222.242096 
	C396.962433,215.798370 393.007080,209.354660 388.956055,202.291458 
	C387.265778,199.186722 385.575470,196.081985 383.836914,192.482468 
	C383.659607,192.161896 383.387909,191.994385 383.004486,191.992950 
z"/>
<path fill="#42176C" opacity="1.000000" stroke="none" 
	d="
M387.967255,335.062897 
	C386.131226,336.388336 384.057709,337.481598 382.498077,339.077209 
	C373.009735,348.784302 361.772400,355.930634 349.343750,361.407227 
	C348.993988,348.148376 349.080078,335.374146 348.950317,322.602081 
	C348.910278,318.659393 348.282104,314.722687 348.113037,310.515839 
	C358.089691,303.577240 365.278595,294.483734 372.270538,284.828064 
	C378.367981,278.605530 381.077850,270.983704 383.284485,263.006470 
	C383.513733,263.003113 383.972137,262.991821 384.294861,263.216339 
	C385.078369,265.465698 385.926117,267.488129 385.938965,269.515808 
	C386.046234,286.457306 385.815674,303.403290 386.134796,320.339478 
	C386.210754,324.369812 388.052887,328.351471 388.884583,332.396240 
	C389.047546,333.188721 388.296661,334.169159 387.967255,335.062897 
z"/>
<path fill="#3F1668" opacity="1.000000" stroke="none" 
	d="
M387.976746,335.440979 
	C388.296661,334.169159 389.047546,333.188721 388.884583,332.396240 
	C388.052887,328.351471 386.210754,324.369812 386.134796,320.339478 
	C385.815674,303.403290 386.046234,286.457306 385.938965,269.515808 
	C385.926117,267.488129 385.078369,265.465698 384.363159,262.815216 
	C384.443512,259.127960 384.778351,256.066345 385.334717,252.715958 
	C386.017456,249.624786 386.478638,246.822357 386.959106,243.569031 
	C386.983978,240.411865 386.989563,237.705627 386.999939,234.582703 
	C387.006012,232.776733 387.007263,231.387451 387.008392,229.598602 
	C387.008759,228.133545 387.009247,227.068039 387.268768,225.939178 
	C387.354218,225.250320 387.180634,224.624802 387.001404,223.602478 
	C386.662994,221.136917 386.330261,219.068146 385.997009,216.583435 
	C385.330994,213.111435 384.665497,210.055420 383.999329,206.665665 
	C384.003754,205.886963 384.008820,205.442001 384.383331,204.994965 
	C386.185730,204.298904 387.618744,203.604919 389.051727,202.910934 
	C393.007080,209.354660 396.962433,215.798370 400.733765,222.938141 
	C400.365692,225.598068 400.023590,227.561752 400.021271,229.525848 
	C399.986938,258.759918 399.952576,287.994171 400.043915,317.227966 
	C400.058350,321.844330 400.688629,326.458740 401.034119,331.074066 
	C396.311218,336.917297 391.620087,342.786957 386.817535,348.563995 
	C386.322693,349.159241 385.163116,349.201874 384.311981,349.500916 
	C384.092834,348.533783 383.449402,347.418030 383.727203,346.625031 
	C385.006287,342.973785 386.542328,339.412598 387.976746,335.440979 
z"/>
<path fill="#761B9D" opacity="1.000000" stroke="none" 
	d="
M289.931976,368.164215 
	C289.504028,368.095001 289.076050,368.025818 288.261292,367.644012 
	C287.238983,367.249481 286.603424,367.167542 285.967896,367.085571 
	C280.772736,365.624481 275.577576,364.163361 270.254913,361.978394 
	C270.418182,358.977325 270.951080,356.701111 270.960815,354.422668 
	C271.027740,338.733276 270.985413,323.043457 271.316162,307.549744 
	C272.737030,308.468353 273.731079,309.424835 274.917297,309.875854 
	C282.934692,312.924530 290.992767,315.866302 299.028687,319.321045 
	C299.013062,333.793091 298.928162,347.787384 299.046661,361.779907 
	C299.083069,366.080994 298.818451,369.350098 293.083313,367.338928 
	C292.233765,367.041046 290.992188,367.861267 289.931976,368.164215 
z"/>
<path fill="#5C16A5" opacity="1.000000" stroke="none" 
	d="
M359.116974,157.951706 
	C359.440948,158.016068 359.694855,158.185471 359.961395,159.032074 
	C360.146088,160.850281 360.248047,162.096344 360.429779,164.316833 
	C350.438507,159.753128 341.177277,155.458649 331.861298,151.286453 
	C323.292969,147.449081 314.665710,143.743240 305.885071,139.829193 
	C305.491333,139.449142 305.315826,139.192719 305.189331,138.480316 
	C305.076141,136.050919 304.952850,134.050873 304.816895,131.684250 
	C304.528534,129.880981 304.252869,128.444290 303.969299,126.625336 
	C303.632141,124.500687 303.302887,122.758308 302.872681,120.755325 
	C302.529968,119.990997 302.288239,119.487274 302.043640,118.584564 
	C302.024109,117.121292 302.007477,116.056999 301.923950,114.613739 
	C301.188477,111.232765 300.519928,108.230759 299.673584,104.430534 
	C305.261719,107.351990 309.668365,109.655769 314.074982,111.959549 
	C314.074982,111.959549 314.010010,111.981674 314.092346,112.272034 
	C314.846130,113.045654 315.517609,113.528915 316.189056,114.012177 
	C322.879639,118.548584 329.545044,122.874840 334.667419,129.547134 
	C341.556976,138.521317 349.474030,146.706680 357.060059,155.890381 
	C357.819061,157.017319 358.468018,157.484512 359.116974,157.951706 
z"/>
<path fill="#38135F" opacity="1.000000" stroke="none" 
	d="
M401.324402,330.896118 
	C400.688629,326.458740 400.058350,321.844330 400.043915,317.227966 
	C399.952576,287.994171 399.986938,258.759918 400.021271,229.525848 
	C400.023590,227.561752 400.365692,225.598068 400.804962,223.302094 
	C408.228058,235.443863 411.990662,249.062439 415.028168,263.014496 
	C418.285034,277.974304 417.687622,292.739441 412.788116,307.054382 
	C409.980927,315.256256 405.398102,322.850403 401.324402,330.896118 
z"/>
<path fill="#CCA3D6" opacity="1.000000" stroke="none" 
	d="
M249.991989,217.222244 
	C255.371094,219.829437 260.750214,222.436630 266.660095,225.410385 
	C267.734741,226.551392 268.278625,227.325836 268.448914,228.088257 
	C259.270996,224.406265 250.421951,220.838821 241.679657,217.026550 
	C236.706985,214.858093 231.908859,212.289352 226.852081,209.620361 
	C219.450409,204.885742 212.228760,200.431610 204.774506,195.729340 
	C197.373047,192.303268 190.204239,189.125320 182.827759,185.665649 
	C175.696945,183.337524 168.798096,181.196396 161.809952,179.403397 
	C161.169998,179.239197 159.218079,181.256012 159.151230,182.338821 
	C158.948685,185.619385 159.598709,188.945236 159.502792,192.241394 
	C159.347839,197.565353 158.862885,202.879700 158.148407,208.200226 
	C153.850128,207.084274 149.920731,205.966171 145.656281,204.672516 
	C137.204605,203.716064 129.087982,202.935181 120.984833,201.673309 
	C120.985939,196.778778 120.973579,192.365250 121.288635,187.731903 
	C129.997162,186.813675 138.378281,186.115265 147.212692,185.379074 
	C145.141373,184.462463 143.543213,183.755234 141.945068,183.048004 
	C141.945068,183.048004 141.498215,182.926971 141.134125,182.530609 
	C137.033447,181.209335 133.296829,180.284424 129.144333,179.256577 
	C131.694153,178.548935 134.033829,177.917679 136.362534,177.248154 
	C138.609726,176.602081 140.845596,175.916580 143.086441,175.248398 
	C145.409729,175.211121 147.733017,175.173843 150.551270,175.437378 
	C151.699799,175.807358 152.353333,175.876511 153.006882,175.945648 
	C153.450867,176.004318 153.894867,176.062988 154.888214,176.337585 
	C156.643173,176.097198 157.848755,175.640854 159.054352,175.184525 
	C172.348190,180.147064 185.952927,184.425949 198.838562,190.286041 
	C209.355164,195.068787 218.958130,201.837372 229.071625,207.538422 
	C235.037903,210.901672 241.209473,213.900681 247.727356,217.379303 
	C248.774658,217.537491 249.383331,217.379868 249.991989,217.222244 
M151.741653,186.470520 
	C151.897232,186.465561 152.052811,186.460602 152.208389,186.455643 
	C152.106400,186.411407 152.004395,186.367157 151.741653,186.470520 
z"/>
<path fill="#8A2EBF" opacity="1.000000" stroke="none" 
	d="
M227.911713,319.040466 
	C224.944504,316.273956 221.977295,313.507477 219.258820,310.372498 
	C219.561188,309.048370 220.052689,307.697266 219.601410,307.197540 
	C214.585388,301.642944 212.322830,295.372101 212.898254,287.759277 
	C213.407654,281.019989 212.851562,274.206268 213.096008,267.437347 
	C213.174026,265.277069 214.308578,263.154938 215.248749,261.175964 
	C217.401459,263.207184 219.265106,265.077850 221.274094,267.243164 
	C225.716187,271.787445 230.012924,276.037048 234.243866,280.796387 
	C234.118439,292.207458 234.113632,303.109497 233.955826,314.009338 
	C233.921768,316.362091 233.336517,318.706879 232.979843,321.234802 
	C230.849655,320.312500 229.380676,319.676483 227.911713,319.040466 
z"/>
<path fill="#A248E7" opacity="1.000000" stroke="none" 
	d="
M120.971352,202.154297 
	C129.087982,202.935181 137.204605,203.716064 145.652893,205.114502 
	C145.656357,211.488022 145.328186,217.244019 144.711182,223.048935 
	C143.943359,223.411316 143.464355,223.724747 142.985367,224.038193 
	C137.182831,222.637085 131.389374,221.197006 125.575920,219.842758 
	C112.371735,216.766815 99.350227,217.251160 85.986008,221.797302 
	C84.098885,221.489288 82.791061,221.353439 81.483246,221.217590 
	C81.299202,220.747925 81.115158,220.278275 80.931114,219.808624 
	C87.967476,215.611557 95.003830,211.414474 102.425598,207.145447 
	C108.864449,205.433762 114.917900,203.794037 120.971352,202.154297 
z"/>
<path fill="#63289B" opacity="1.000000" stroke="none" 
	d="
M313.929993,111.649788 
	C309.668365,109.655769 305.261719,107.351990 299.673584,104.430534 
	C300.519928,108.230759 301.188477,111.232765 301.553955,114.628281 
	C299.481201,115.859665 297.569427,116.486870 295.964600,117.569191 
	C284.458313,125.329353 271.891876,130.102493 257.996582,130.945618 
	C251.419540,131.344727 244.813202,131.260834 238.220139,131.395752 
	C236.907349,126.759529 240.621246,125.169510 243.324661,122.961754 
	C245.485794,121.196846 247.635376,119.417778 250.321320,117.331451 
	C251.533005,117.025787 252.213455,117.033669 253.126282,117.226578 
	C255.421143,116.255638 257.483643,115.099686 259.955872,113.971626 
	C269.421631,115.951225 278.104767,114.616425 286.080566,110.150482 
	C290.690247,107.569336 294.751892,104.009476 299.060150,100.890091 
	C303.968414,104.373405 308.876709,107.856720 313.929993,111.649788 
z"/>
<path fill="#6E1A95" opacity="1.000000" stroke="none" 
	d="
M290.171570,368.487183 
	C290.992188,367.861267 292.233765,367.041046 293.083313,367.338928 
	C298.818451,369.350098 299.083069,366.080994 299.046661,361.779907 
	C298.928162,347.787384 299.013062,333.793091 299.449005,319.321655 
	C304.582764,319.519501 309.287170,320.195221 313.993713,321.347656 
	C313.997192,332.944366 313.768311,344.071381 314.106323,355.181091 
	C314.254364,360.047302 315.560242,364.878265 316.340363,369.725250 
	C316.340363,369.725250 315.932373,369.739502 315.317749,369.463593 
	C311.456573,369.489258 308.209961,369.790833 304.963379,370.092407 
	C300.112640,369.664978 295.261902,369.237549 290.171570,368.487183 
z"/>
<path fill="#872BB8" opacity="1.000000" stroke="none" 
	d="
M227.961426,319.388733 
	C229.380676,319.676483 230.849655,320.312500 232.979843,321.234802 
	C233.336517,318.706879 233.921768,316.362091 233.955826,314.009338 
	C234.113632,303.109497 234.118439,292.207458 234.478546,281.072174 
	C239.198212,284.554413 243.617371,288.270660 247.714050,292.179810 
	C246.594757,294.416901 245.154816,296.446930 245.109192,298.507751 
	C244.875534,309.063202 245.001099,319.626556 245.001099,330.240265 
	C243.768967,330.240265 242.191986,330.240265 240.615005,330.240265 
	C244.895737,331.821045 246.855713,334.394470 246.024429,338.885895 
	C245.846252,339.848541 245.924942,340.877533 246.006668,341.865936 
	C246.249695,344.805542 245.031509,346.269287 241.996719,346.001862 
	C241.996719,346.001862 242.000000,346.000000 241.843384,345.718140 
	C240.113373,344.654938 238.539948,343.873596 236.966537,343.092255 
	C235.398422,341.939575 233.830307,340.786896 232.499329,339.214905 
	C232.853683,338.109863 233.302917,337.233612 233.035950,336.768372 
	C230.766953,332.814331 228.367661,328.935059 226.007446,325.033386 
	C228.393112,325.697052 230.778793,326.360718 233.644714,327.306763 
	C234.421738,327.788147 234.718506,327.987122 235.121307,328.285553 
	C235.227356,328.385010 235.639618,328.427856 235.639618,328.427856 
	C235.639618,328.427856 235.985779,328.181061 236.230560,328.037720 
	C235.881439,327.377350 235.287567,326.860321 234.693695,326.343292 
	C232.466171,324.141205 230.238647,321.939117 227.961426,319.388733 
M238.508102,329.469391 
	C238.508102,329.469391 238.528015,329.515228 238.508102,329.469391 
z"/>
<path fill="#38135F" opacity="1.000000" stroke="none" 
	d="
M304.829529,132.050842 
	C304.952850,134.050873 305.076141,136.050919 304.801880,138.524963 
	C296.392731,144.085251 288.293945,149.042175 280.428650,154.345337 
	C278.367004,155.735428 278.698273,157.969833 281.406555,158.774063 
	C285.514252,159.993835 289.694031,160.970764 293.963043,162.354584 
	C295.386871,164.106384 296.690887,165.554459 297.648132,167.067902 
	C292.277679,169.549957 287.184174,171.833923 282.253296,174.427185 
	C278.604858,176.345947 275.579132,176.548370 272.548401,173.214539 
	C271.482056,172.041565 269.454773,171.742233 267.866241,171.044006 
	C267.576569,170.952438 267.339844,170.785706 267.054199,169.976044 
	C265.302032,167.605515 263.651611,165.802750 261.880157,163.711227 
	C261.850525,162.663269 261.650269,161.540268 262.076447,161.198563 
	C270.733673,154.257217 279.225647,147.070557 288.270599,140.667358 
	C293.302002,137.105484 299.278809,134.879105 304.829529,132.050842 
z"/>
<path fill="#9F43E1" opacity="1.000000" stroke="none" 
	d="
M145.000000,223.000000 
	C145.328186,217.244019 145.656357,211.488022 145.987946,205.290054 
	C149.920731,205.966171 153.850128,207.084274 158.395096,208.464447 
	C162.095032,210.598587 165.179382,212.470642 168.206863,214.849487 
	C166.917648,227.412872 167.432281,238.814041 178.891556,246.595657 
	C179.812408,247.220993 179.593079,249.525360 179.903595,251.049484 
	C177.968048,249.049698 176.154602,246.911819 174.075912,245.073929 
	C164.778000,236.853149 154.896133,229.483994 143.164307,224.340790 
	C143.464355,223.724747 143.943359,223.411316 144.751602,223.129303 
	C145.080856,223.160736 145.287643,223.175949 145.287643,223.175949 
	C145.287643,223.175949 145.000000,223.000000 145.000000,223.000000 
z"/>
<path fill="#9235CC" opacity="1.000000" stroke="none" 
	d="
M214.959686,261.015350 
	C214.308578,263.154938 213.174026,265.277069 213.096008,267.437347 
	C212.851562,274.206268 213.407654,281.019989 212.898254,287.759277 
	C212.322830,295.372101 214.585388,301.642944 219.601410,307.197540 
	C220.052689,307.697266 219.561188,309.048370 219.208664,310.019684 
	C213.506836,304.559021 209.142975,298.288971 205.061127,291.171600 
	C205.052322,288.633087 205.543335,286.515015 204.829895,284.943787 
	C202.816330,280.509338 200.308395,276.299377 198.239227,271.665741 
	C198.655930,265.530914 198.571213,259.707520 199.103516,253.941086 
	C199.396240,250.769836 200.727402,247.694412 201.774384,244.853256 
	C206.292175,250.425598 210.625931,255.720474 214.959686,261.015350 
z"/>
<path fill="#9A3ED9" opacity="1.000000" stroke="none" 
	d="
M197.995300,272.000946 
	C200.308395,276.299377 202.816330,280.509338 204.829895,284.943787 
	C205.543335,286.515015 205.052322,288.633087 205.025757,290.820740 
	C202.527863,286.806702 200.330231,282.335754 197.658585,278.168671 
	C191.947861,269.261383 185.991776,260.511414 180.019897,251.373245 
	C179.593079,249.525360 179.812408,247.220993 178.891556,246.595657 
	C167.432281,238.814041 166.917648,227.412872 168.531769,215.010239 
	C172.953873,217.412384 176.994202,220.160568 181.223236,223.176666 
	C183.302643,225.441299 185.193344,227.438004 187.071198,229.945038 
	C187.038696,235.285919 187.622192,240.211456 186.879639,244.928223 
	C185.077408,256.376099 192.508331,263.723389 197.995300,272.000946 
z"/>
<path fill="#4A1484" opacity="1.000000" stroke="none" 
	d="
M221.902847,169.008667 
	C221.902847,169.008667 221.448654,168.951965 221.158218,168.571686 
	C220.094223,167.019730 219.320679,165.848038 218.386597,164.433167 
	C220.530899,162.948898 222.446243,161.672897 224.308685,160.323868 
	C228.564957,157.240936 232.795319,154.122269 237.367920,150.901031 
	C239.399597,149.006821 240.917313,145.987122 242.836578,145.705688 
	C247.117966,145.077835 251.599823,145.817139 256.000458,146.374329 
	C256.001831,147.498993 256.002747,148.248734 255.779388,149.243683 
	C250.682266,152.692749 248.085052,157.324326 247.131393,162.971252 
	C246.734024,165.324295 246.393799,167.686981 246.027588,170.045273 
	C246.027588,170.045273 245.996414,170.004547 245.827957,170.102020 
	C245.415497,170.350021 245.206238,170.539017 245.031708,170.766464 
	C238.359497,176.176346 231.949478,173.524063 224.970886,169.780884 
	C223.553131,169.288528 222.727982,169.148590 221.902847,169.008667 
z"/>
<path fill="#65198C" opacity="1.000000" stroke="none" 
	d="
M316.691284,369.788757 
	C315.560242,364.878265 314.254364,360.047302 314.106323,355.181091 
	C313.768311,344.071381 313.997192,332.944366 314.408875,321.251312 
	C317.882812,320.496368 320.943634,320.314514 324.010406,320.551453 
	C324.344208,325.405792 324.902313,329.838654 324.955200,334.277527 
	C325.093262,345.863220 325.010132,357.451508 325.015198,369.038757 
	C322.357513,369.309937 319.699890,369.581116 316.691284,369.788757 
z"/>
<path fill="#8226B0" opacity="1.000000" stroke="none" 
	d="
M242.041061,346.365234 
	C245.031509,346.269287 246.249695,344.805542 246.006668,341.865936 
	C245.924942,340.877533 245.846252,339.848541 246.024429,338.885895 
	C246.855713,334.394470 244.895737,331.821045 240.615005,330.240265 
	C242.191986,330.240265 243.768967,330.240265 245.001099,330.240265 
	C245.001099,319.626556 244.875534,309.063202 245.109192,298.507751 
	C245.154816,296.446930 246.594757,294.416901 248.024139,292.307922 
	C251.178497,294.460480 253.700287,296.677826 255.922760,299.158264 
	C255.082443,301.614105 254.096054,303.802216 254.073105,306.000336 
	C253.929199,319.776306 254.041443,333.554749 253.952057,347.331635 
	C253.939713,349.237244 253.281677,351.138672 252.922577,353.042023 
	C249.310165,350.937561 245.697784,348.833069 242.041061,346.365234 
z"/>
<path fill="#551598" opacity="1.000000" stroke="none" 
	d="
M306.064392,139.979462 
	C314.665710,143.743240 323.292969,147.449081 331.861298,151.286453 
	C341.177277,155.458649 350.438507,159.753128 360.429779,164.316833 
	C360.248047,162.096344 360.146088,160.850281 360.044891,159.250412 
	C361.921051,161.686600 363.796448,164.476578 365.577332,167.638870 
	C365.482849,168.011200 365.065002,168.045715 364.694885,168.097534 
	C361.287292,169.126892 358.249817,170.104416 354.869568,170.922455 
	C350.156555,168.741425 345.822662,166.636459 341.409027,164.714615 
	C330.011749,159.751923 318.579224,154.870132 307.113037,149.540070 
	C306.731628,146.075912 306.398010,143.027679 306.064392,139.979462 
z"/>
<path fill="#7A1EA4" opacity="1.000000" stroke="none" 
	d="
M270.978241,307.353760 
	C270.985413,323.043457 271.027740,338.733276 270.960815,354.422668 
	C270.951080,356.701111 270.418182,358.977325 270.049072,361.671448 
	C266.115448,360.238892 262.260101,358.389465 258.457764,356.064087 
	C261.934570,356.002350 261.994446,353.856445 262.035706,351.306152 
	C262.298401,335.079010 262.668671,318.853638 263.342224,302.738831 
	C266.113403,304.351288 268.545837,305.852509 270.978241,307.353760 
z"/>
<path fill="#290A4A" opacity="1.000000" stroke="none" 
	d="
M365.065002,168.045715 
	C365.065002,168.045715 365.482849,168.011200 365.688202,167.969238 
	C366.511566,169.071625 367.129608,170.215988 367.942444,172.002533 
	C370.247955,175.814087 372.369202,178.976486 374.466431,182.154739 
	C376.630493,185.434235 378.771179,188.729172 380.949066,192.379700 
	C381.296356,194.151031 381.616730,195.560013 381.560944,196.995743 
	C375.280273,199.606812 369.409332,202.272385 363.454590,204.735336 
	C361.082825,205.716324 358.525696,206.249084 356.040344,206.655579 
	C356.009064,205.885056 355.990356,205.444824 356.042297,204.668671 
	C356.158142,203.877319 356.203308,203.421906 356.400146,202.818115 
	C356.741852,202.453415 356.884430,202.209335 357.051880,201.558136 
	C359.771179,190.134415 362.418091,179.090073 365.065002,168.045715 
z"/>
<path fill="#976FAD" opacity="1.000000" stroke="none" 
	d="
M102.040192,207.217407 
	C95.003830,211.414474 87.967476,215.611557 80.931114,219.808624 
	C81.115158,220.278275 81.299202,220.747925 81.483246,221.217590 
	C82.791061,221.353439 84.098885,221.489288 85.585419,221.864166 
	C82.638634,223.712479 79.513145,225.321732 76.248306,227.002731 
	C73.087944,222.215622 75.881912,218.034805 77.886551,214.985077 
	C88.434433,198.938217 103.135620,188.462936 122.272835,185.141068 
	C128.576263,184.046906 135.097473,184.207413 141.732086,183.421112 
	C143.543213,183.755234 145.141373,184.462463 147.212692,185.379074 
	C138.378281,186.115265 129.997162,186.813675 120.886787,187.741516 
	C116.073158,189.184906 111.951752,190.288483 107.914513,191.642944 
	C103.605232,193.088669 100.119743,195.089767 101.890915,200.815170 
	C102.497780,202.776917 102.021576,205.073700 102.040192,207.217407 
M79.527580,222.444962 
	C79.527580,222.444962 79.570885,222.523407 79.527580,222.444962 
z"/>
<path fill="#7E22AA" opacity="1.000000" stroke="none" 
	d="
M263.003479,302.627655 
	C262.668671,318.853638 262.298401,335.079010 262.035706,351.306152 
	C261.994446,353.856445 261.934570,356.002350 258.264038,355.776489 
	C256.427094,355.190338 254.836823,354.415771 253.084564,353.341614 
	C253.281677,351.138672 253.939713,349.237244 253.952057,347.331635 
	C254.041443,333.554749 253.929199,319.776306 254.073105,306.000336 
	C254.096054,303.802216 255.082443,301.614105 256.266846,299.142914 
	C258.941315,300.118835 260.972412,301.373260 263.003479,302.627655 
z"/>
<path fill="#4C1875" opacity="1.000000" stroke="none" 
	d="
M347.923218,310.783234 
	C348.282104,314.722687 348.910278,318.659393 348.950317,322.602081 
	C349.080078,335.374146 348.993988,348.148376 348.985596,361.377991 
	C346.581879,362.901764 344.183563,363.969299 341.406036,364.610779 
	C341.005463,347.751007 340.984100,331.317261 341.171783,314.623138 
	C343.561646,313.169556 345.742432,311.976410 347.923218,310.783234 
z"/>
<path fill="#9639D3" opacity="1.000000" stroke="none" 
	d="
M268.822510,228.100281 
	C268.278625,227.325836 267.734741,226.551392 267.035706,225.505768 
	C268.211365,223.051819 269.542206,220.869034 271.342957,218.517059 
	C276.780243,216.414398 281.761505,214.515671 286.710938,212.537277 
	C291.254089,210.721298 295.762909,208.819504 300.134003,207.249298 
	C299.604095,208.303299 299.227051,209.063507 298.581055,210.012146 
	C296.814178,212.066193 295.316223,213.931824 293.553619,215.945694 
	C292.550537,216.786499 291.812134,217.479050 290.788574,218.293549 
	C289.366852,219.328995 288.230347,220.242508 286.802551,221.274734 
	C285.345703,222.269043 284.180084,223.144638 282.635956,224.103851 
	C281.506500,226.018265 280.163269,227.831146 280.107361,229.682907 
	C279.866608,237.652740 280.090149,245.635620 279.939270,253.609863 
	C279.904022,255.472824 279.065491,257.320618 278.378754,258.890320 
	C276.276031,248.622208 274.391113,238.639145 272.442719,228.320068 
	C271.786072,228.280197 270.304291,228.190247 268.822510,228.100281 
z"/>
<path fill="#56197F" opacity="1.000000" stroke="none" 
	d="
M340.962738,314.883545 
	C340.984100,331.317261 341.005463,347.751007 341.041748,364.664062 
	C338.602234,365.961060 336.147858,366.778656 333.342896,367.238037 
	C332.965118,350.626862 332.937927,334.373871 333.180908,317.964111 
	C335.954956,316.832703 338.458832,315.858124 340.962738,314.883545 
z"/>
<path fill="#3F1668" opacity="1.000000" stroke="none" 
	d="
M268.040924,171.340942 
	C269.454773,171.742233 271.482056,172.041565 272.548401,173.214539 
	C275.579132,176.548370 278.604858,176.345947 282.253296,174.427185 
	C287.184174,171.833923 292.277679,169.549957 297.938293,167.240479 
	C300.413086,170.468918 302.250977,173.590179 303.919922,177.027954 
	C297.695648,180.627365 291.656219,183.940063 285.578491,187.181015 
	C282.368744,188.892639 279.110077,189.502945 275.938660,187.018127 
	C273.364288,181.891388 270.789948,176.764633 268.040924,171.340942 
z"/>
<path fill="#5E1986" opacity="1.000000" stroke="none" 
	d="
M332.910767,318.120911 
	C332.937927,334.373871 332.965118,350.626862 332.990356,367.333313 
	C330.605286,368.196350 328.222168,368.605865 325.427124,369.027100 
	C325.010132,357.451508 325.093262,345.863220 324.955200,334.277527 
	C324.902313,329.838654 324.344208,325.405792 324.401001,320.433411 
	C327.494019,319.304688 330.202393,318.712799 332.910767,318.120911 
z"/>
<path fill="#551F8B" opacity="1.000000" stroke="none" 
	d="
M238.133118,131.683212 
	C244.813202,131.260834 251.419540,131.344727 257.996582,130.945618 
	C271.891876,130.102493 284.458313,125.329353 295.964600,117.569191 
	C297.569427,116.486870 299.481201,115.859665 301.620880,115.007248 
	C302.007477,116.056999 302.024109,117.121292 301.671692,118.604965 
	C292.107025,123.248901 282.819214,127.285629 273.739044,131.745193 
	C262.167816,137.428162 249.815094,140.083481 237.218231,141.981827 
	C237.194672,141.521484 237.171127,141.061157 237.367264,140.045776 
	C237.461502,138.679977 237.336060,137.869202 237.210602,137.058426 
	C237.489090,135.362503 237.767593,133.666595 238.133118,131.683212 
z"/>
<path fill="#8139BD" opacity="1.000000" stroke="none" 
	d="
M287.055634,87.944626 
	C290.009979,90.385384 292.964294,92.826141 295.822906,95.814072 
	C293.747314,101.186768 289.609650,103.400650 285.156921,105.420525 
	C278.338287,108.513641 271.432587,110.653313 263.948242,108.584686 
	C264.329956,105.801491 264.614441,103.407501 264.974640,100.747063 
	C265.105743,100.304443 265.161163,100.128265 265.617676,99.966118 
	C269.652161,99.109322 273.719940,98.981651 276.807159,97.176750 
	C280.540985,94.993828 286.441803,94.623840 286.753479,88.243790 
	C286.854218,88.144089 287.055634,87.944626 287.055634,87.944626 
z"/>
<path fill="#42176C" opacity="1.000000" stroke="none" 
	d="
M304.816895,131.684265 
	C299.278809,134.879105 293.302002,137.105484 288.270599,140.667358 
	C279.225647,147.070557 270.733673,154.257217 262.076447,161.198563 
	C261.650269,161.540268 261.850525,162.663269 261.877686,164.056763 
	C261.990540,165.151947 261.984802,165.612839 261.979034,166.073715 
	C260.860748,165.468307 259.742493,164.862915 258.379578,163.778946 
	C259.294434,156.121613 263.590485,151.088898 269.160370,146.823380 
	C270.372528,145.895096 271.068665,144.292984 272.356140,142.940399 
	C274.633392,141.924240 276.565186,140.985123 278.479004,140.010712 
	C286.981201,135.681854 295.478271,131.342896 303.977203,127.007591 
	C304.252869,128.444290 304.528534,129.880981 304.816895,131.684265 
z"/>
<path fill="#4E1B83" opacity="1.000000" stroke="none" 
	d="
M237.141830,142.370071 
	C249.815094,140.083481 262.167816,137.428162 273.739044,131.745193 
	C282.819214,127.285629 292.107025,123.248901 301.674561,119.003937 
	C302.288239,119.487274 302.529968,119.990997 302.526245,120.810425 
	C299.373291,122.990417 296.572296,125.052635 293.539459,126.683777 
	C282.154510,132.806915 270.699554,138.800125 259.251892,144.805923 
	C258.238220,145.337723 257.087219,145.607773 256.000000,145.999405 
	C251.599823,145.817139 247.117966,145.077835 242.836578,145.705688 
	C240.917313,145.987122 239.399597,149.006821 237.350525,150.582458 
	C236.714218,149.615173 236.427048,148.849350 236.139862,148.083527 
	C236.448380,146.308456 236.756912,144.533386 237.141830,142.370071 
z"/>
<path fill="#431477" opacity="1.000000" stroke="none" 
	d="
M272.002441,143.001221 
	C271.068665,144.292984 270.372528,145.895096 269.160370,146.823380 
	C263.590485,151.088898 259.294434,156.121613 258.077362,163.677124 
	C254.257950,166.018509 250.496170,167.983185 246.380981,169.996552 
	C246.393799,167.686981 246.734024,165.324295 247.131393,162.971252 
	C248.085052,157.324326 250.682266,152.692749 256.139832,149.181046 
	C261.817169,146.915878 266.909821,144.958542 272.002441,143.001221 
z"/>
<path fill="#5C16A5" opacity="1.000000" stroke="none" 
	d="
M242.964417,105.997681 
	C242.619553,105.952065 242.352173,105.783539 242.025177,104.920135 
	C238.882904,100.703423 235.877701,97.058693 232.436874,92.885628 
	C240.677200,90.557579 247.783936,90.288521 254.913696,92.345093 
	C251.901718,97.461380 248.942642,102.233200 245.692978,106.870148 
	C244.589737,106.489410 243.777069,106.243546 242.964417,105.997681 
z"/>
<path fill="#7632B3" opacity="1.000000" stroke="none" 
	d="
M263.851044,108.973892 
	C271.432587,110.653313 278.338287,108.513641 285.156921,105.420525 
	C289.609650,103.400650 293.747314,101.186768 295.984070,96.122070 
	C297.159271,97.314949 298.077515,98.746986 299.027954,100.534561 
	C294.751892,104.009476 290.690247,107.569336 286.080566,110.150482 
	C278.104767,114.616425 269.421631,115.951225 260.166992,113.701714 
	C261.262573,111.927238 262.556824,110.450569 263.851044,108.973892 
z"/>
<path fill="#4C1875" opacity="1.000000" stroke="none" 
	d="
M275.972168,187.482300 
	C279.110077,189.502945 282.368744,188.892639 285.578491,187.181015 
	C291.656219,183.940063 297.695648,180.627365 304.140228,177.300491 
	C304.977997,178.528351 305.426544,179.800171 305.782593,181.170532 
	C305.578918,181.547363 305.655365,181.775482 305.962189,182.291016 
	C306.017212,183.081696 306.029510,183.534805 305.654358,184.008682 
	C303.530182,184.527603 301.697937,184.817261 300.073608,185.561020 
	C293.934875,188.371887 287.969177,191.590485 281.722107,194.121918 
	C278.662354,195.361801 277.602966,197.021133 277.881256,200.367371 
	C277.512299,202.146606 277.296387,203.591339 276.929382,205.337494 
	C276.208801,207.098114 275.639282,208.557343 274.951263,210.216248 
	C274.650421,210.671738 274.425629,210.882217 274.158356,211.047333 
	C274.774109,203.347046 275.389893,195.646744 275.972168,187.482300 
z"/>
<path fill="#9235CC" opacity="1.000000" stroke="none" 
	d="
M225.813812,324.733185 
	C228.367661,328.935059 230.766953,332.814331 233.035950,336.768372 
	C233.302917,337.233612 232.853683,338.109863 232.463943,338.885681 
	C223.819687,334.360352 217.233902,327.870239 211.418030,320.572021 
	C211.815430,319.904175 212.212845,319.236359 212.610245,318.568512 
	C216.946884,320.523315 221.283524,322.478149 225.813812,324.733185 
z"/>
<path fill="#8139BD" opacity="1.000000" stroke="none" 
	d="
M261.168793,89.962166 
	C260.526611,86.673561 260.028137,83.348557 259.206512,80.105423 
	C258.139801,75.894852 260.373322,72.734581 264.187836,74.209755 
	C272.380371,77.378052 281.083893,79.922173 287.007446,87.592056 
	C287.055634,87.944626 286.854218,88.144089 286.440033,88.135780 
	C284.384033,87.403381 282.742188,86.679291 280.854858,85.718307 
	C274.920807,81.611588 268.945770,78.413925 261.886017,76.895088 
	C262.627472,81.715500 263.269775,85.891220 263.569397,90.049004 
	C262.540710,90.008102 261.854767,89.985130 261.168793,89.962166 
z"/>
<path fill="#63289B" opacity="1.000000" stroke="none" 
	d="
M260.941681,90.293396 
	C261.854767,89.985130 262.540710,90.008102 263.606964,90.370941 
	C264.277954,91.495033 264.568665,92.279251 264.871368,93.315933 
	C264.764282,94.046486 264.645203,94.524582 264.142975,95.007675 
	C263.504333,95.008850 263.248901,95.005035 262.669922,94.956841 
	C261.912018,94.883850 261.477631,94.855247 260.863190,94.579987 
	C259.791626,93.890434 258.900085,93.447548 257.764343,92.782211 
	C256.668976,92.373398 255.817780,92.187012 254.966583,92.000626 
	C247.783936,90.288521 240.677200,90.557579 232.436874,92.885628 
	C235.877701,97.058693 238.882904,100.703423 241.946686,104.689865 
	C237.545807,101.252968 233.086334,97.474358 228.626862,93.695747 
	C228.724106,93.014389 228.821350,92.333038 228.918579,91.651680 
	C233.528473,90.766792 238.120499,89.299286 242.753143,89.157333 
	C247.595306,89.008957 252.473541,90.163925 257.342987,90.683685 
	C258.452118,90.802078 259.589935,90.651443 260.941681,90.293396 
z"/>
<path fill="#8A2EBF" opacity="1.000000" stroke="none" 
	d="
M300.286865,206.955505 
	C295.762909,208.819504 291.254089,210.721298 286.710938,212.537277 
	C281.761505,214.515671 276.780243,216.414398 271.526733,218.198944 
	C271.943756,216.789062 272.646851,215.528091 274.016296,214.104095 
	C276.122589,213.562439 277.653290,213.381973 278.986938,212.771210 
	C285.145264,209.950867 291.196320,206.889221 297.413452,204.210175 
	C298.751038,203.633804 300.617188,204.284012 302.205627,204.641205 
	C302.050903,205.258163 301.930328,205.603073 301.579681,205.995529 
	C300.995361,206.347229 300.641113,206.651367 300.286865,206.955505 
z"/>
<path fill="#7E22AA" opacity="1.000000" stroke="none" 
	d="
M302.239838,204.369186 
	C300.617188,204.284012 298.751038,203.633804 297.413452,204.210175 
	C291.196320,206.889221 285.145264,209.950867 278.986938,212.771210 
	C277.653290,213.381973 276.122589,213.562439 274.296539,213.943756 
	C273.955902,213.220001 274.001373,212.493607 274.102600,211.407257 
	C274.425629,210.882217 274.650421,210.671738 275.323761,210.194092 
	C279.459991,208.522781 283.091583,207.037827 286.753571,205.631973 
	C292.655182,203.366379 298.576782,201.152908 304.459137,199.298584 
	C303.698822,201.242889 302.969330,202.806046 302.239838,204.369186 
z"/>
<path fill="#63289B" opacity="1.000000" stroke="none" 
	d="
M236.065628,148.427460 
	C236.427048,148.849350 236.714218,149.615173 237.018799,150.699554 
	C232.795319,154.122269 228.564957,157.240936 224.308685,160.323868 
	C222.446243,161.672897 220.530899,162.948898 218.386597,164.433167 
	C219.320679,165.848038 220.094223,167.019730 220.941711,168.497543 
	C218.671600,167.703094 216.327560,166.602524 213.983521,165.501953 
	C216.126587,163.415695 218.063095,161.046127 220.455521,159.301895 
	C225.507812,155.618439 230.798492,152.261978 236.065628,148.427460 
z"/>
<path fill="#976FAD" opacity="1.000000" stroke="none" 
	d="
M142.636566,175.128632 
	C140.845596,175.916580 138.609726,176.602081 136.362534,177.248154 
	C134.033829,177.917679 131.694153,178.548935 129.144333,179.256577 
	C133.296829,180.284424 137.033447,181.209335 140.909744,182.473755 
	C135.099838,182.813248 129.150238,182.813248 122.001907,182.813248 
	C127.610619,175.047211 134.782562,174.731918 142.636566,175.128632 
z"/>
<path fill="#551598" opacity="1.000000" stroke="none" 
	d="
M254.913696,92.345093 
	C255.817780,92.187012 256.668976,92.373398 257.705139,93.131294 
	C255.321304,97.891296 252.562225,101.981407 250.311996,106.334564 
	C249.718582,107.482529 250.696609,109.442818 250.961212,111.358521 
	C250.977219,112.124947 250.985016,112.562927 250.642212,113.002052 
	C249.824081,113.020081 249.356522,113.036964 248.888977,113.053856 
	C248.313507,112.563309 247.738037,112.072762 247.054504,110.964584 
	C246.625473,109.232971 246.304520,108.118996 245.983566,107.005020 
	C248.942642,102.233200 251.901718,97.461380 254.913696,92.345093 
z"/>
<path fill="#420B60" opacity="1.000000" stroke="none" 
	d="
M380.922119,192.017349 
	C378.771179,188.729172 376.630493,185.434235 374.466431,182.154739 
	C372.369202,178.976486 370.247955,175.814087 368.071350,172.300629 
	C369.971130,173.748779 372.326416,175.266647 373.822021,177.390030 
	C376.995056,181.895065 379.720337,186.715469 382.476257,191.704712 
	C381.856232,192.007675 381.389191,192.012512 380.922119,192.017349 
z"/>
<path fill="#42176C" opacity="1.000000" stroke="none" 
	d="
M380.949066,192.379700 
	C381.389191,192.012512 381.856232,192.007675 382.672424,191.986603 
	C383.021545,191.970367 383.004486,191.992950 383.127625,192.176758 
	C383.430054,192.599213 383.641510,192.804779 383.885162,192.977249 
	C385.575470,196.081985 387.265778,199.186722 389.003906,202.601196 
	C387.618744,203.604919 386.185730,204.298904 384.226715,204.649750 
	C383.112823,201.860748 382.524933,199.414871 381.937073,196.969009 
	C381.616730,195.560013 381.296356,194.151031 380.949066,192.379700 
z"/>
<path fill="#65198C" opacity="1.000000" stroke="none" 
	d="
M305.226196,370.411926 
	C308.209961,369.790833 311.456573,369.489258 315.194153,369.301147 
	C312.286407,369.853577 308.887726,370.292511 305.226196,370.411926 
z"/>
<path fill="#3F1668" opacity="1.000000" stroke="none" 
	d="
M262.172058,166.330048 
	C261.984802,165.612839 261.990540,165.151947 261.998779,164.345535 
	C263.651611,165.802750 265.302032,167.605515 266.950317,169.782227 
	C265.420502,168.966232 263.892792,167.776291 262.172058,166.330048 
z"/>
<path fill="#4A1484" opacity="1.000000" stroke="none" 
	d="
M248.939819,113.402794 
	C249.356522,113.036964 249.824081,113.020081 250.950836,113.007111 
	C252.019104,113.028137 252.428131,113.045227 252.885696,113.304016 
	C252.934219,113.545708 253.079697,114.016785 253.062820,114.395340 
	C252.995255,115.529778 252.944580,116.285667 252.893890,117.041557 
	C252.213455,117.033669 251.533005,117.025787 250.513901,117.030464 
	C249.780365,115.945930 249.385498,114.848831 248.939819,113.402794 
z"/>
<path fill="#8226B0" opacity="1.000000" stroke="none" 
	d="
M237.124588,343.395935 
	C238.539948,343.873596 240.113373,344.654938 241.842712,345.720032 
	C240.426636,345.235718 238.854630,344.467651 237.124588,343.395935 
z"/>
<path fill="#63289B" opacity="1.000000" stroke="none" 
	d="
M245.692978,106.870148 
	C246.304520,108.118996 246.625473,109.232971 246.950012,110.697601 
	C245.657883,109.587830 244.362198,108.127403 243.015472,106.332321 
	C243.777069,106.243546 244.589737,106.489410 245.692978,106.870148 
z"/>
<path fill="#976FAD" opacity="1.000000" stroke="none" 
	d="
M158.681915,175.095581 
	C157.848755,175.640854 156.643173,176.097198 155.224091,176.299744 
	C156.110229,175.699509 157.209854,175.353058 158.681915,175.095581 
z"/>
<path fill="#976FAD" opacity="1.000000" stroke="none" 
	d="
M152.909866,175.627991 
	C152.353333,175.876511 151.699799,175.807358 150.984894,175.479614 
	C151.553314,175.250793 152.183090,175.280563 152.909866,175.627991 
z"/>
<path fill="#6E1A95" opacity="1.000000" stroke="none" 
	d="
M286.118805,367.348022 
	C286.603424,367.167542 287.238983,367.249481 287.941589,367.581177 
	C287.429047,367.757477 286.849365,367.683960 286.118805,367.348022 
z"/>
<path fill="#E5BBED" opacity="1.000000" stroke="none" 
	d="
M249.676636,217.094086 
	C249.383331,217.379868 248.774658,217.537491 248.099396,217.446487 
	C248.475601,217.120560 248.918442,217.043243 249.676636,217.094086 
z"/>
<path fill="#551598" opacity="1.000000" stroke="none" 
	d="
M359.060303,157.618011 
	C358.468018,157.484512 357.819061,157.017319 357.100525,156.236298 
	C357.688507,156.376419 358.346100,156.830368 359.060303,157.618011 
z"/>
<path fill="#63289B" opacity="1.000000" stroke="none" 
	d="
M316.100159,113.682266 
	C315.517609,113.528915 314.846130,113.045654 314.104828,112.240067 
	C314.693756,112.395950 315.352509,112.874161 316.100159,113.682266 
z"/>
<path fill="#63289B" opacity="1.000000" stroke="none" 
	d="
M222.096115,169.280975 
	C222.727982,169.148590 223.553131,169.288528 224.638458,169.606964 
	C224.028900,169.708084 223.159134,169.630676 222.096115,169.280975 
z"/>
<path fill="#4E1B83" opacity="1.000000" stroke="none" 
	d="
M237.172470,137.415512 
	C237.336060,137.869202 237.461502,138.679977 237.427368,139.704529 
	C237.223297,139.203079 237.178818,138.487839 237.172470,137.415512 
z"/>
<path fill="#431477" opacity="1.000000" stroke="none" 
	d="
M245.262024,170.751038 
	C245.206238,170.539017 245.415497,170.350021 245.852478,170.109436 
	C245.961105,170.335388 245.776749,170.574127 245.262024,170.751038 
z"/>
<path fill="#420B60" opacity="1.000000" stroke="none" 
	d="
M383.861023,192.729858 
	C383.641510,192.804779 383.430054,192.599213 383.136292,192.170258 
	C383.387909,191.994385 383.659607,192.161896 383.861023,192.729858 
z"/>
<path fill="#E5BBED" opacity="1.000000" stroke="none" 
	d="
M333.180908,317.964111 
	C330.202393,318.712799 327.494019,319.304688 324.395081,320.014648 
	C320.943634,320.314514 317.882812,320.496368 314.406799,320.774567 
	C309.287170,320.195221 304.582764,319.519501 299.458008,318.843201 
	C290.992767,315.866302 282.934692,312.924530 274.917297,309.875854 
	C273.731079,309.424835 272.737030,308.468353 271.316162,307.549744 
	C268.545837,305.852509 266.113403,304.351288 263.342224,302.738831 
	C260.972412,301.373260 258.941315,300.118835 256.566162,298.879822 
	C253.700287,296.677826 251.178497,294.460480 248.346619,292.115021 
	C243.617371,288.270660 239.198212,284.554413 234.544357,280.562378 
	C230.012924,276.037048 225.716187,271.787445 221.580124,267.046021 
	C222.484512,265.150726 223.901840,263.728882 223.864166,262.346680 
	C223.589828,252.278900 222.788116,242.222885 222.624573,232.155502 
	C222.500107,224.494431 218.309845,215.863327 227.032135,209.900864 
	C231.908859,212.289352 236.706985,214.858093 241.679657,217.026550 
	C250.421951,220.838821 259.270996,224.406265 268.448914,228.088257 
	C270.304291,228.190247 271.786072,228.280197 272.442719,228.320068 
	C274.391113,238.639145 276.276031,248.622208 278.476715,259.223267 
	C279.737030,261.622498 280.681580,263.403809 281.747070,265.512512 
	C283.505280,267.872284 285.142578,269.904663 286.779907,271.937042 
	C287.612976,270.091309 287.371674,268.974609 287.278595,267.845703 
	C286.705902,260.896423 284.324066,253.884628 288.022766,247.459976 
	C288.367401,249.890030 288.630768,251.928864 288.845886,254.376251 
	C289.182739,256.854401 289.567871,258.923950 289.923584,261.354004 
	C290.237579,262.337189 290.581024,262.959900 290.829651,263.674591 
	C290.734863,263.766571 290.894928,263.976685 290.877563,264.277374 
	C291.113922,264.863037 291.367706,265.148041 291.522400,265.415314 
	C291.423370,265.397614 291.387665,265.595673 291.451721,265.923035 
	C292.495972,268.223450 293.476196,270.196564 294.526062,272.451233 
	C294.930817,273.190430 295.265961,273.648041 295.725403,274.447418 
	C296.222168,275.072113 296.594604,275.355042 296.854675,275.696136 
	C296.742371,275.754303 296.847595,275.984344 296.921265,276.290619 
	C297.665558,277.388214 298.336121,278.179504 299.056091,279.210999 
	C299.243408,279.781219 299.487579,279.981995 299.955841,280.372681 
	C304.353760,284.903351 308.633820,289.114899 313.246246,293.653442 
	C315.480499,290.529053 317.094543,288.271973 318.937866,285.764618 
	C320.178101,284.035522 321.189056,282.556671 322.474731,280.913940 
	C323.833160,279.166809 324.916931,277.583618 326.284058,275.854797 
	C327.365417,274.464294 328.163361,273.219391 329.254639,271.817474 
	C331.053772,269.447021 332.559631,267.233582 334.356293,264.855408 
	C338.384735,260.032288 342.122345,255.373871 346.060364,250.995514 
	C347.457764,252.646667 348.654724,254.017731 349.942749,255.685852 
	C350.589600,256.582306 351.145386,257.181702 351.772400,258.029541 
	C352.401794,258.923798 352.959961,259.569611 353.666992,260.522095 
	C355.131561,262.390686 356.447296,263.952606 357.870972,265.808197 
	C359.057709,267.394012 360.136536,268.686096 361.321533,270.287781 
	C364.931702,275.364288 368.435669,280.131195 371.939667,284.898071 
	C365.278595,294.483734 358.089691,303.577240 348.113037,310.515839 
	C345.742432,311.976410 343.561646,313.169556 341.171783,314.623138 
	C338.458832,315.858124 335.954956,316.832703 333.180908,317.964111 
z"/>
<path fill="#70189B" opacity="1.000000" stroke="none" 
	d="
M372.270538,284.828064 
	C368.435669,280.131195 364.931702,275.364288 361.679626,270.269379 
	C363.553223,269.223419 365.123688,268.340271 366.806122,267.817963 
	C372.200195,266.143402 377.635742,264.602356 383.055267,263.009796 
	C381.077850,270.983704 378.367981,278.605530 372.270538,284.828064 
z"/>
<path fill="#65198C" opacity="1.000000" stroke="none" 
	d="
M383.284485,263.006470 
	C377.635742,264.602356 372.200195,266.143402 366.806122,267.817963 
	C365.123688,268.340271 363.553223,269.223419 361.573425,269.959778 
	C360.136536,268.686096 359.057709,267.394012 358.084473,265.500366 
	C361.347198,262.824432 364.494354,260.734680 367.663696,258.679138 
	C372.972321,255.236176 378.417725,252.192520 385.113159,253.004715 
	C384.778351,256.066345 384.443512,259.127960 384.040405,262.590698 
	C383.972137,262.991821 383.513733,263.003113 383.284485,263.006470 
z"/>
<path fill="#490D6A" opacity="1.000000" stroke="none" 
	d="
M349.851685,255.388794 
	C348.654724,254.017731 347.457764,252.646667 346.014618,250.771744 
	C345.792603,249.510727 345.816803,248.753586 345.914459,247.603271 
	C346.683441,243.510422 347.378937,239.810730 348.300842,236.083527 
	C348.527222,236.056000 348.979279,235.995132 349.343140,235.980713 
	C351.103302,235.184250 352.698425,234.625076 353.864471,233.584900 
	C363.162689,225.290512 374.069611,220.169037 385.997559,216.999390 
	C386.330261,219.068146 386.662994,221.136917 386.999878,223.936340 
	C387.005981,225.112198 387.007874,225.557358 387.009766,226.002533 
	C387.009247,227.068039 387.008759,228.133545 386.594238,229.600006 
	C377.023376,230.947388 369.238373,235.199188 361.978912,240.436234 
	C356.648224,244.281860 351.509033,248.475449 349.851685,255.388794 
z"/>
<path fill="#420B60" opacity="1.000000" stroke="none" 
	d="
M385.997009,216.583435 
	C374.069611,220.169037 363.162689,225.290512 353.864471,233.584900 
	C352.698425,234.625076 351.103302,235.184250 349.371216,235.579666 
	C350.098480,230.784851 351.161499,226.376648 352.583954,221.954132 
	C354.479095,221.363052 356.076630,220.911575 357.540344,220.189041 
	C366.377258,215.826950 375.183502,211.402802 384.000000,206.999405 
	C384.665497,210.055420 385.330994,213.111435 385.997009,216.583435 
z"/>
<path fill="#390955" opacity="1.000000" stroke="none" 
	d="
M383.999329,206.665680 
	C375.183502,211.402802 366.377258,215.826950 357.540344,220.189041 
	C356.076630,220.911575 354.479095,221.363052 352.597290,221.574188 
	C353.518463,216.467682 354.785706,211.726791 356.052948,206.985901 
	C358.525696,206.249084 361.082825,205.716324 363.454590,204.735336 
	C369.409332,202.272385 375.280273,199.606812 381.560944,196.995743 
	C382.524933,199.414871 383.112823,201.860748 383.857300,204.651825 
	C384.008820,205.442001 384.003754,205.886963 383.999329,206.665680 
z"/>
<path fill="#56197F" opacity="1.000000" stroke="none" 
	d="
M353.518158,260.215393 
	C352.959961,259.569611 352.401794,258.923798 351.874268,257.634796 
	C352.457214,255.986938 352.858093,254.853745 353.584930,253.997116 
	C362.402649,243.604645 373.589294,237.341599 386.995117,234.999390 
	C386.989563,237.705627 386.983978,240.411865 386.532166,243.563522 
	C379.770233,246.132675 373.173737,247.677032 367.225525,250.559235 
	C362.262115,252.964233 358.058350,256.936981 353.518158,260.215393 
z"/>
<path fill="#5E1986" opacity="1.000000" stroke="none" 
	d="
M353.666992,260.522095 
	C358.058350,256.936981 362.262115,252.964233 367.225525,250.559235 
	C373.173737,247.677032 379.770233,246.132675 386.512909,244.014435 
	C386.478638,246.822357 386.017456,249.624786 385.334717,252.715958 
	C378.417725,252.192520 372.972321,255.236176 367.663696,258.679138 
	C364.494354,260.734680 361.347198,262.824432 357.976532,265.206665 
	C356.447296,263.952606 355.131561,262.390686 353.666992,260.522095 
z"/>
<path fill="#4C1875" opacity="1.000000" stroke="none" 
	d="
M386.999939,234.582703 
	C373.589294,237.341599 362.402649,243.604645 353.584930,253.997116 
	C352.858093,254.853745 352.457214,255.986938 351.803009,257.386353 
	C351.145386,257.181702 350.589600,256.582306 349.942749,255.685852 
	C351.509033,248.475449 356.648224,244.281860 361.978912,240.436234 
	C369.238373,235.199188 377.023376,230.947388 386.594421,229.999573 
	C387.007263,231.387451 387.006012,232.776733 386.999939,234.582703 
z"/>
<path fill="#42176C" opacity="1.000000" stroke="none" 
	d="
M387.268799,225.939178 
	C387.007874,225.557358 387.005981,225.112198 387.005585,224.333160 
	C387.180634,224.624802 387.354218,225.250320 387.268799,225.939178 
z"/>
<path fill="#290A4A" opacity="1.000000" stroke="none" 
	d="
M305.885071,139.829193 
	C306.398010,143.027679 306.731628,146.075912 307.075073,149.969666 
	C307.074860,152.531082 307.064819,154.246964 306.661499,155.971069 
	C302.126556,158.003159 297.984894,160.027008 293.843201,162.050858 
	C289.694031,160.970764 285.514252,159.993835 281.406555,158.774063 
	C278.698273,157.969833 278.367004,155.735428 280.428650,154.345337 
	C288.293945,149.042175 296.392731,144.085251 304.791748,138.954315 
	C305.315826,139.192719 305.491333,139.449142 305.885071,139.829193 
z"/>
<path fill="#4C1875" opacity="1.000000" stroke="none" 
	d="
M272.356140,142.940399 
	C266.909821,144.958542 261.817169,146.915878 256.364105,148.935852 
	C256.002747,148.248734 256.001831,147.498993 256.000458,146.374329 
	C257.087219,145.607773 258.238220,145.337723 259.251892,144.805923 
	C270.699554,138.800125 282.154510,132.806915 293.539459,126.683777 
	C296.572296,125.052635 299.373291,122.990417 302.627197,121.071022 
	C303.302887,122.758308 303.632141,124.500687 303.969299,126.625328 
	C295.478271,131.342896 286.981201,135.681854 278.479004,140.010712 
	C276.565186,140.985123 274.633392,141.924240 272.356140,142.940399 
z"/>
<path fill="#E3B9EB" opacity="1.000000" stroke="none" 
	d="
M226.852081,209.620361 
	C218.309845,215.863327 222.500107,224.494431 222.624573,232.155502 
	C222.788116,242.222885 223.589828,252.278900 223.864166,262.346680 
	C223.901840,263.728882 222.484512,265.150726 221.434784,266.751343 
	C219.265106,265.077850 217.401459,263.207184 215.248749,261.175964 
	C210.625931,255.720474 206.292175,250.425598 201.613342,244.566864 
	C200.365433,242.711899 199.462601,241.420792 198.963516,240.080048 
	C200.127777,238.863388 201.454880,237.732391 201.531891,236.521851 
	C201.696960,233.928116 201.097702,231.296631 201.024033,228.674637 
	C200.857254,222.740311 201.461929,216.701584 200.551041,210.893814 
	C199.610275,204.895493 199.672638,199.817200 205.007126,195.977478 
	C212.228760,200.431610 219.450409,204.885742 226.852081,209.620361 
z"/>
<path fill="#E0B5E8" opacity="1.000000" stroke="none" 
	d="
M204.774506,195.729340 
	C199.672638,199.817200 199.610275,204.895493 200.551041,210.893814 
	C201.461929,216.701584 200.857254,222.740311 201.024033,228.674637 
	C201.097702,231.296631 201.696960,233.928116 201.531891,236.521851 
	C201.454880,237.732391 200.127777,238.863388 198.714432,239.891602 
	C194.402405,236.313416 190.743225,232.874069 187.084045,229.434708 
	C185.193344,227.438004 183.302643,225.441299 181.237823,222.782959 
	C180.885864,212.457016 180.937912,202.779800 180.396988,193.135864 
	C180.223679,190.045898 180.066742,187.596695 183.035431,185.947372 
	C190.204239,189.125320 197.373047,192.303268 204.774506,195.729340 
z"/>
<path fill="#DAB0E3" opacity="1.000000" stroke="none" 
	d="
M182.827759,185.665649 
	C180.066742,187.596695 180.223679,190.045898 180.396988,193.135864 
	C180.937912,202.779800 180.885864,212.457016 181.049103,222.515045 
	C176.994202,220.160568 172.953873,217.412384 168.588623,214.503448 
	C165.179382,212.470642 162.095032,210.598587 158.764008,208.462311 
	C158.862885,202.879700 159.347839,197.565353 159.502792,192.241394 
	C159.598709,188.945236 158.948685,185.619385 159.151230,182.338821 
	C159.218079,181.256012 161.169998,179.239197 161.809952,179.403397 
	C168.798096,181.196396 175.696945,183.337524 182.827759,185.665649 
z"/>
<path fill="#B78EC8" opacity="1.000000" stroke="none" 
	d="
M102.425598,207.145447 
	C102.021576,205.073700 102.497780,202.776917 101.890915,200.815170 
	C100.119743,195.089767 103.605232,193.088669 107.914513,191.642944 
	C111.951752,190.288483 116.073158,189.184906 120.559372,187.961334 
	C120.973579,192.365250 120.985939,196.778778 120.984833,201.673309 
	C114.917900,203.794037 108.864449,205.433762 102.425598,207.145447 
z"/>
<path fill="#976FAD" opacity="1.000000" stroke="none" 
	d="
M151.822021,186.396713 
	C152.004395,186.367157 152.106400,186.411407 152.208389,186.455658 
	C152.052811,186.460602 151.897232,186.465561 151.822021,186.396713 
z"/>
<path fill="#20083A" opacity="1.000000" stroke="none" 
	d="
M253.126282,117.226578 
	C252.944580,116.285667 252.995255,115.529778 253.395432,114.324875 
	C254.860886,112.555161 255.960632,111.220337 257.096069,109.916611 
	C259.687744,106.940834 262.296906,103.980263 264.898926,101.013519 
	C264.614441,103.407501 264.329956,105.801491 263.948242,108.584686 
	C262.556824,110.450569 261.262573,111.927238 259.757233,113.673820 
	C257.483643,115.099686 255.421143,116.255638 253.126282,117.226578 
z"/>
<path fill="#000000" opacity="1.000000" stroke="none" 
	d="
M235.015259,328.186096 
	C234.718506,327.987122 234.421738,327.788147 234.027451,327.335266 
	C234.053391,326.954529 234.176834,326.827637 234.496994,326.522034 
	C235.287567,326.860321 235.881439,327.377350 235.987640,327.985107 
	C235.499954,328.075836 235.015259,328.186096 235.015259,328.186096 
z"/>
<path fill="#8226B0" opacity="1.000000" stroke="none" 
	d="
M235.121307,328.285553 
	C235.015259,328.186096 235.499954,328.075836 235.742859,328.128448 
	C235.985779,328.181061 235.639618,328.427856 235.639618,328.427856 
	C235.639618,328.427856 235.227356,328.385010 235.121307,328.285553 
z"/>
<path fill="#8226B0" opacity="1.000000" stroke="none" 
	d="
M238.518066,329.492310 
	C238.528015,329.515228 238.508102,329.469391 238.518066,329.492310 
z"/>
<path fill="#20083A" opacity="1.000000" stroke="none" 
	d="
M293.963043,162.354584 
	C297.984894,160.027008 302.126556,158.003159 306.710541,155.952179 
	C307.152832,155.925034 307.256622,155.903336 307.195984,156.322220 
	C307.197784,158.138596 307.260254,159.536102 307.301910,161.323944 
	C307.539032,163.800613 307.796997,165.886963 308.035217,168.402176 
	C308.020386,170.544571 308.025269,172.258072 308.020447,174.386963 
	C308.994873,177.025787 309.377808,180.335770 311.073181,181.273804 
	C316.697418,184.385681 322.794128,186.643661 328.555237,189.501404 
	C327.875122,190.419113 327.349396,191.064575 326.534058,191.884003 
	C323.431427,194.356125 320.618378,196.654297 317.497284,198.819824 
	C313.478882,197.137634 309.768555,195.588104 306.012817,193.608948 
	C305.979065,191.451889 305.990753,189.724472 306.045044,187.597931 
	C306.072327,186.128494 306.057037,185.058212 306.041779,183.987915 
	C306.029510,183.534805 306.017212,183.081696 305.968506,182.070007 
	C305.932068,181.511444 305.875092,181.072006 305.875092,181.072006 
	C305.426544,179.800171 304.977997,178.528351 304.309143,176.983978 
	C302.250977,173.590179 300.413086,170.468918 298.285034,167.175079 
	C296.690887,165.554459 295.386871,164.106384 293.963043,162.354584 
z"/>
<path fill="#A248E7" opacity="1.000000" stroke="none" 
	d="
M145.040436,223.080368 
	C145.000000,223.000000 145.287643,223.175949 145.287643,223.175949 
	C145.287643,223.175949 145.080856,223.160736 145.040436,223.080368 
z"/>
<path fill="#9639D3" opacity="1.000000" stroke="none" 
	d="
M187.071198,229.945038 
	C190.743225,232.874069 194.402405,236.313416 198.310669,239.941223 
	C199.462601,241.420792 200.365433,242.711899 201.429306,244.289398 
	C200.727402,247.694412 199.396240,250.769836 199.103516,253.941086 
	C198.571213,259.707520 198.655930,265.530914 198.239227,271.665741 
	C192.508331,263.723389 185.077408,256.376099 186.879639,244.928223 
	C187.622192,240.211456 187.038696,235.285919 187.071198,229.945038 
z"/>
<path fill="#811A98" opacity="1.000000" stroke="none" 
	d="
M326.823669,191.710037 
	C327.349396,191.064575 327.875122,190.419113 328.821625,189.406738 
	C330.492950,188.022171 331.743530,187.004517 333.286133,185.866943 
	C334.724030,184.842087 335.869873,183.937119 337.318848,182.901108 
	C339.409637,181.495331 341.197296,180.220581 343.284149,178.808105 
	C345.393646,177.451584 347.203979,176.232803 349.325684,174.885345 
	C351.495483,173.531754 353.353912,172.306854 355.212372,171.081940 
	C358.249817,170.104416 361.287292,169.126892 364.694885,168.097534 
	C362.418091,179.090073 359.771179,190.134415 356.853455,201.670807 
	C356.311371,202.364288 356.199982,202.632172 356.248505,202.966507 
	C356.203308,203.421906 356.158142,203.877319 355.663666,204.648865 
	C352.092133,203.906631 348.816132,203.162552 345.879150,201.725555 
	C339.436218,198.573212 333.165009,195.069992 326.823669,191.710037 
z"/>
<path fill="#4A1484" opacity="1.000000" stroke="none" 
	d="
M354.869568,170.922455 
	C353.353912,172.306854 351.495483,173.531754 349.091370,174.634842 
	C338.462982,169.652664 328.421753,164.703125 318.274933,159.980423 
	C314.736237,158.333374 310.936920,157.246201 307.256622,155.903336 
	C307.256622,155.903336 307.152832,155.925034 307.103821,155.943939 
	C307.064819,154.246964 307.074860,152.531082 307.122864,150.385620 
	C318.579224,154.870132 330.011749,159.751923 341.409027,164.714615 
	C345.822662,166.636459 350.156555,168.741425 354.869568,170.922455 
z"/>
<path fill="#73199E" opacity="1.000000" stroke="none" 
	d="
M326.534058,191.884003 
	C333.165009,195.069992 339.436218,198.573212 345.879150,201.725555 
	C348.816132,203.162552 352.092133,203.906631 355.593018,204.984802 
	C355.990356,205.444824 356.009064,205.885056 356.040344,206.655579 
	C354.785706,211.726791 353.518463,216.467682 352.237854,221.588501 
	C351.161499,226.376648 350.098480,230.784851 349.007385,235.594086 
	C348.979279,235.995132 348.527222,236.056000 348.103638,235.778412 
	C342.873871,233.308151 338.079803,231.088562 333.259125,228.928314 
	C322.837860,224.258331 312.402924,219.618759 302.130157,214.719696 
	C302.793182,213.920776 303.299652,213.368896 304.021729,212.561798 
	C308.760040,207.855194 313.282684,203.403824 317.805359,198.952469 
	C320.618378,196.654297 323.431427,194.356125 326.534058,191.884003 
z"/>
<path fill="#390955" opacity="1.000000" stroke="none" 
	d="
M356.400146,202.818115 
	C356.199982,202.632172 356.311371,202.364288 356.781067,202.050171 
	C356.884430,202.209335 356.741852,202.453415 356.400146,202.818115 
z"/>
<path fill="#A248E7" opacity="1.000000" stroke="none" 
	d="
M79.549232,222.484192 
	C79.570885,222.523407 79.527580,222.444962 79.549232,222.484192 
z"/>
<path fill="#7632B3" opacity="1.000000" stroke="none" 
	d="
M287.941528,247.068741 
	C284.324066,253.884628 286.705902,260.896423 287.278595,267.845703 
	C287.371674,268.974609 287.612976,270.091309 286.779907,271.937042 
	C285.142578,269.904663 283.505280,267.872284 282.044128,265.222839 
	C282.792084,261.531647 283.864685,258.454193 283.844482,255.383926 
	C283.775665,244.928009 283.321533,234.474594 283.014496,224.020233 
	C284.180084,223.144638 285.345703,222.269043 286.775085,221.726654 
	C287.024811,227.315125 286.847656,232.577850 287.087738,237.821503 
	C287.168549,239.587036 288.309021,241.304062 288.922119,243.301300 
	C288.182648,244.124573 287.486206,244.689804 286.706482,245.322632 
	C287.027161,245.776031 287.484344,246.422394 287.941528,247.068741 
z"/>
<path fill="#8139BD" opacity="1.000000" stroke="none" 
	d="
M282.635956,224.103851 
	C283.321533,234.474594 283.775665,244.928009 283.844482,255.383926 
	C283.864685,258.454193 282.792084,261.531647 281.923248,264.895447 
	C280.681580,263.403809 279.737030,261.622498 278.694489,259.508301 
	C279.065491,257.320618 279.904022,255.472824 279.939270,253.609863 
	C280.090149,245.635620 279.866608,237.652740 280.107361,229.682907 
	C280.163269,227.831146 281.506500,226.018265 282.635956,224.103851 
z"/>
<path fill="#63289B" opacity="1.000000" stroke="none" 
	d="
M288.965149,243.043274 
	C288.309021,241.304062 287.168549,239.587036 287.087738,237.821503 
	C286.847656,232.577850 287.024811,227.315125 287.066345,221.607941 
	C288.230347,220.242508 289.366852,219.328995 290.771423,218.738098 
	C291.370117,223.053253 291.700806,227.045807 292.002808,231.428635 
	C291.314850,235.539719 290.655609,239.260529 289.738342,242.993484 
	C289.308624,243.018188 289.136871,243.030731 288.965149,243.043274 
z"/>
<path fill="#4E1B83" opacity="1.000000" stroke="none" 
	d="
M292.031464,231.038361 
	C291.700806,227.045807 291.370117,223.053253 291.056610,218.616150 
	C291.812134,217.479050 292.550537,216.786499 293.739075,216.303024 
	C294.829956,218.712906 295.470703,220.913712 296.070801,223.466980 
	C295.656067,225.201035 295.282013,226.582611 294.651978,228.128784 
	C293.607788,229.208389 292.819641,230.123367 292.031464,231.038361 
z"/>
<path fill="#3F1668" opacity="1.000000" stroke="none" 
	d="
M296.111481,223.114502 
	C295.470703,220.913712 294.829956,218.712906 294.003723,216.154785 
	C295.316223,213.931824 296.814178,212.066193 298.746399,210.351044 
	C299.776520,212.327942 300.372345,214.154358 300.921387,216.318939 
	C299.286926,218.809570 297.699188,220.962036 296.111481,223.114502 
z"/>
<path fill="#290A4A" opacity="1.000000" stroke="none" 
	d="
M300.968140,215.980789 
	C300.372345,214.154358 299.776520,212.327942 299.015350,210.162613 
	C299.227051,209.063507 299.604095,208.303299 300.134003,207.249298 
	C300.641113,206.651367 300.995361,206.347229 301.860535,206.250641 
	C302.849640,208.577820 303.327881,210.697433 303.806091,212.817047 
	C303.299652,213.368896 302.793182,213.920776 301.921082,214.843597 
	C301.297760,215.422501 301.101990,215.677917 300.968140,215.980789 
z"/>
<path fill="#9A3ED9" opacity="1.000000" stroke="none" 
	d="
M264.526154,95.002678 
	C264.645203,94.524582 264.764282,94.046486 265.305542,93.297394 
	C271.548401,92.183456 277.905365,92.506325 281.100372,85.955200 
	C282.742188,86.679291 284.384033,87.403381 286.339294,88.235474 
	C286.441803,94.623840 280.540985,94.993828 276.807159,97.176750 
	C273.719940,98.981651 269.652161,99.109322 265.531189,99.616135 
	C264.871063,97.835648 264.698608,96.419167 264.526154,95.002678 
z"/>
<path fill="#290A4A" opacity="1.000000" stroke="none" 
	d="
M264.142975,95.007675 
	C264.698608,96.419167 264.871063,97.835648 265.130066,99.602112 
	C265.161163,100.128265 265.105743,100.304443 264.974640,100.747070 
	C262.296906,103.980263 259.687744,106.940834 257.096069,109.916611 
	C255.960632,111.220337 254.860886,112.555161 253.412308,113.946320 
	C253.079697,114.016785 252.934219,113.545708 253.073090,112.996231 
	C254.828934,109.778900 256.522308,107.153732 258.042664,104.431931 
	C259.773499,101.333366 261.349915,98.148544 262.993439,95.001221 
	C263.248901,95.005035 263.504333,95.008850 264.142975,95.007675 
z"/>
<path fill="#70189B" opacity="1.000000" stroke="none" 
	d="
M304.489929,198.917419 
	C298.576782,201.152908 292.655182,203.366379 286.753571,205.631973 
	C283.091583,207.037827 279.459991,208.522781 275.442261,209.994415 
	C275.639282,208.557343 276.208801,207.098114 277.283569,205.261765 
	C284.341583,201.850616 290.828461,198.659775 297.481384,195.864090 
	C299.948303,194.827469 302.804932,194.718262 305.420197,194.530197 
	C305.067688,196.221985 304.778809,197.569702 304.489929,198.917419 
z"/>
<path fill="#65198C" opacity="1.000000" stroke="none" 
	d="
M305.483856,194.186127 
	C302.804932,194.718262 299.948303,194.827469 297.481384,195.864090 
	C290.828461,198.659775 284.341583,201.850616 277.434692,204.960358 
	C277.296387,203.591339 277.512299,202.146606 278.240723,200.294495 
	C287.836304,195.923767 296.919373,191.960403 306.002441,187.997040 
	C305.990753,189.724472 305.979065,191.451889 305.876282,193.673538 
	C305.785156,194.167770 305.483856,194.186127 305.483856,194.186127 
z"/>
<path fill="#56197F" opacity="1.000000" stroke="none" 
	d="
M306.045044,187.597916 
	C296.919373,191.960403 287.836304,195.923767 278.393768,199.959991 
	C277.602966,197.021133 278.662354,195.361801 281.722107,194.121918 
	C287.969177,191.590485 293.934875,188.371887 300.073608,185.561020 
	C301.697937,184.817261 303.530182,184.527603 305.654358,184.008682 
	C306.057037,185.058212 306.072327,186.128494 306.045044,187.597916 
z"/>
<path fill="#56197F" opacity="1.000000" stroke="none" 
	d="
M305.782593,181.170532 
	C305.875092,181.072006 305.932068,181.511444 305.925781,181.732437 
	C305.655365,181.775482 305.578918,181.547363 305.782593,181.170532 
z"/>
<path fill="#A248E7" opacity="1.000000" stroke="none" 
	d="
M280.854858,85.718307 
	C277.905365,92.506325 271.548401,92.183456 265.293549,93.044937 
	C264.568665,92.279251 264.277954,91.495033 263.949646,90.388870 
	C263.269775,85.891220 262.627472,81.715500 261.886017,76.895088 
	C268.945770,78.413925 274.920807,81.611588 280.854858,85.718307 
z"/>
<path fill="#42176C" opacity="1.000000" stroke="none" 
	d="
M262.669922,94.956841 
	C261.349915,98.148544 259.773499,101.333366 258.042664,104.431931 
	C256.522308,107.153732 254.828934,109.778900 253.024567,112.754532 
	C252.428131,113.045227 252.019104,113.028137 251.301437,113.005981 
	C250.985016,112.562927 250.977219,112.124947 251.034790,111.007126 
	C254.414520,105.160400 257.728851,99.993515 261.043213,94.826630 
	C261.477631,94.855247 261.912018,94.883850 262.669922,94.956841 
z"/>
<path fill="#4A1484" opacity="1.000000" stroke="none" 
	d="
M260.863190,94.579979 
	C257.728851,99.993515 254.414520,105.160400 251.026596,110.678688 
	C250.696609,109.442818 249.718582,107.482529 250.311996,106.334564 
	C252.562225,101.981407 255.321304,97.891296 257.949310,93.353729 
	C258.900085,93.447548 259.791626,93.890434 260.863190,94.579979 
z"/>
<path fill="#000000" opacity="1.000000" stroke="none" 
	d="
M305.420197,194.530212 
	C305.483856,194.186127 305.785156,194.167770 305.921692,194.103180 
	C309.768555,195.588104 313.478882,197.137634 317.497284,198.819824 
	C313.282684,203.403824 308.760040,207.855194 304.021729,212.561798 
	C303.327881,210.697433 302.849640,208.577820 302.090576,206.203094 
	C301.930328,205.603073 302.050903,205.258163 302.205627,204.641205 
	C302.969330,202.806046 303.698822,201.242889 304.459106,199.298584 
	C304.778809,197.569702 305.067688,196.221985 305.420197,194.530212 
z"/>
<path fill="#5C16A5" opacity="1.000000" stroke="none" 
	d="
M292.002808,231.428635 
	C292.819641,230.123367 293.607788,229.208389 295.009888,228.200882 
	C300.898743,230.475052 306.083862,233.073624 311.467316,235.160416 
	C322.870331,239.580597 334.376892,243.733765 345.841003,247.996429 
	C345.816803,248.753586 345.792603,249.510727 345.814209,250.491669 
	C342.122345,255.373871 338.384735,260.032288 334.034546,264.704102 
	C320.378296,259.457367 307.385254,254.065048 294.254150,249.032959 
	C291.098511,247.823624 289.468414,246.379486 289.996338,242.981323 
	C290.655609,239.260529 291.314850,235.539719 292.002808,231.428635 
z"/>
<path fill="#551598" opacity="1.000000" stroke="none" 
	d="
M289.738342,242.993484 
	C289.468414,246.379486 291.098511,247.823624 294.254150,249.032959 
	C307.385254,254.065048 320.378296,259.457367 333.743713,264.868805 
	C332.559631,267.233582 331.053772,269.447021 328.953552,271.645142 
	C320.700745,268.514008 312.967041,265.568512 305.408783,262.226166 
	C299.786102,259.739777 294.390747,256.739227 288.894165,253.967682 
	C288.630768,251.928864 288.367401,249.890030 288.022766,247.459976 
	C287.484344,246.422394 287.027161,245.776031 286.706482,245.322632 
	C287.486206,244.689804 288.182648,244.124573 288.922119,243.301300 
	C289.136871,243.030731 289.308624,243.018188 289.738342,242.993484 
z"/>
<path fill="#4A1484" opacity="1.000000" stroke="none" 
	d="
M288.845886,254.376251 
	C294.390747,256.739227 299.786102,259.739777 305.408783,262.226166 
	C312.967041,265.568512 320.700745,268.514008 328.660248,271.802185 
	C328.163361,273.219391 327.365417,274.464294 325.888550,275.854095 
	C316.784729,272.824677 308.414673,269.490234 299.902191,266.571198 
	C297.262848,265.666107 294.236725,265.889130 291.387665,265.595673 
	C291.387665,265.595673 291.423370,265.397614 291.488281,265.133057 
	C291.333771,264.571259 291.114349,264.273956 290.894928,263.976685 
	C290.894928,263.976685 290.734863,263.766571 290.792480,263.316833 
	C290.551025,262.242554 290.252014,261.618042 289.953003,260.993530 
	C289.567871,258.923950 289.182739,256.854401 288.845886,254.376251 
z"/>
<path fill="#431477" opacity="1.000000" stroke="none" 
	d="
M291.451721,265.923035 
	C294.236725,265.889130 297.262848,265.666107 299.902191,266.571198 
	C308.414673,269.490234 316.784729,272.824677 325.605194,275.999695 
	C324.916931,277.583618 323.833160,279.166809 322.095276,280.842590 
	C319.433014,280.202698 317.447571,279.399109 315.412689,278.750641 
	C308.436646,276.527649 301.443207,274.359039 294.456421,272.169647 
	C293.476196,270.196564 292.495972,268.223450 291.451721,265.923035 
z"/>
<path fill="#42176C" opacity="1.000000" stroke="none" 
	d="
M294.526062,272.451233 
	C301.443207,274.359039 308.436646,276.527649 315.412689,278.750641 
	C317.447571,279.399109 319.433014,280.202698 321.820557,281.006500 
	C321.189056,282.556671 320.178101,284.035522 318.600494,285.688660 
	C311.968567,283.926483 305.903259,281.990021 299.837982,280.053528 
	C299.487579,279.981995 299.243408,279.781219 299.025726,278.864807 
	C298.246490,277.513702 297.547028,276.749023 296.847595,275.984344 
	C296.847595,275.984344 296.742371,275.754303 296.678345,275.398376 
	C296.276581,274.730164 295.938843,274.417908 295.601074,274.105652 
	C295.265961,273.648041 294.930817,273.190430 294.526062,272.451233 
z"/>
<path fill="#38135F" opacity="1.000000" stroke="none" 
	d="
M299.955841,280.372681 
	C305.903259,281.990021 311.968567,283.926483 318.371216,285.938904 
	C317.094543,288.271973 315.480499,290.529053 313.246246,293.653442 
	C308.633820,289.114899 304.353760,284.903351 299.955841,280.372681 
z"/>
<path fill="#38135F" opacity="1.000000" stroke="none" 
	d="
M296.921265,276.290619 
	C297.547028,276.749023 298.246490,277.513702 298.976318,278.624603 
	C298.336121,278.179504 297.665558,277.388214 296.921265,276.290619 
z"/>
<path fill="#431477" opacity="1.000000" stroke="none" 
	d="
M289.923584,261.354004 
	C290.252014,261.618042 290.551025,262.242554 290.887268,263.224854 
	C290.581024,262.959900 290.237579,262.337189 289.923584,261.354004 
z"/>
<path fill="#38135F" opacity="1.000000" stroke="none" 
	d="
M295.725403,274.447418 
	C295.938843,274.417908 296.276581,274.730164 296.790649,275.340210 
	C296.594604,275.355042 296.222168,275.072113 295.725403,274.447418 
z"/>
<path fill="#431477" opacity="1.000000" stroke="none" 
	d="
M290.877563,264.277374 
	C291.114349,264.273956 291.333771,264.571259 291.587311,265.150757 
	C291.367706,265.148041 291.113922,264.863037 290.877563,264.277374 
z"/>
<path fill="#6817A2" opacity="1.000000" stroke="none" 
	d="
M345.914429,247.603271 
	C334.376892,243.733765 322.870331,239.580597 311.467316,235.160416 
	C306.083862,233.073624 300.898743,230.475052 295.265869,228.036270 
	C295.282013,226.582611 295.656067,225.201035 296.070801,223.466980 
	C297.699188,220.962036 299.286926,218.809570 300.921387,216.318939 
	C301.101990,215.677917 301.297760,215.422501 301.764526,215.090637 
	C312.402924,219.618759 322.837860,224.258331 333.259125,228.928314 
	C338.079803,231.088562 342.873871,233.308151 347.877228,235.805939 
	C347.378937,239.810730 346.683441,243.510422 345.914429,247.603271 
z"/>
<path fill="#431477" opacity="1.000000" stroke="none" 
	d="
M307.195984,156.322220 
	C310.936920,157.246201 314.736237,158.333374 318.274933,159.980423 
	C328.421753,164.703125 338.462982,169.652664 348.780029,174.763519 
	C347.203979,176.232803 345.393646,177.451584 343.196411,178.485565 
	C341.716583,177.313675 340.782745,175.979218 339.505585,175.394135 
	C328.813690,170.496017 318.058685,165.735550 307.322723,160.933594 
	C307.260254,159.536102 307.197784,158.138596 307.195984,156.322220 
z"/>
<path fill="#3F1668" opacity="1.000000" stroke="none" 
	d="
M307.301910,161.323944 
	C318.058685,165.735550 328.813690,170.496017 339.505585,175.394135 
	C340.782745,175.979218 341.716583,177.313675 342.897278,178.623306 
	C341.197296,180.220581 339.409637,181.495331 337.252808,182.553650 
	C336.214569,181.417694 335.745697,180.051254 334.845337,179.647842 
	C325.956146,175.664932 316.995392,171.841736 308.054932,167.973297 
	C307.796997,165.886963 307.539032,163.800613 307.301910,161.323944 
z"/>
<path fill="#390955" opacity="1.000000" stroke="none" 
	d="
M308.035217,168.402176 
	C316.995392,171.841736 325.956146,175.664932 334.845337,179.647842 
	C335.745697,180.051254 336.214569,181.417694 336.949707,182.684692 
	C335.869873,183.937119 334.724030,184.842087 333.104309,185.579590 
	C324.430359,181.598618 316.230255,177.785110 308.030151,173.971588 
	C308.025269,172.258072 308.020386,170.544571 308.035217,168.402176 
z"/>
<path fill="#290A4A" opacity="1.000000" stroke="none" 
	d="
M308.020447,174.386963 
	C316.230255,177.785110 324.430359,181.598618 332.812256,185.699493 
	C331.743530,187.004517 330.492950,188.022171 328.976013,189.134491 
	C322.794128,186.643661 316.697418,184.385681 311.073181,181.273804 
	C309.377808,180.335770 308.994873,177.025787 308.020447,174.386963 
z"/>
</svg>